<?xml version="1.0" encoding="UTF-8"?>
<svg width="66px" height="32px" viewBox="0 0 66 32" version="1.1" xmlns="http://www.w3.org/2000/svg" xmlns:xlink="http://www.w3.org/1999/xlink">
    <!-- Generator: Sketch 41.2 (35397) - http://www.bohemiancoding.com/sketch -->
    <title>Group 11</title>
    <desc>Created with Sketch.</desc>
    <defs>
        <linearGradient x1="50%" y1="2.50916773%" x2="50%" y2="81.2021684%" id="linearGradient-1">
            <stop stop-color="#FFC624" offset="0%"></stop>
            <stop stop-color="#FAFF5F" offset="100%"></stop>
        </linearGradient>
        <linearGradient x1="50%" y1="2.91573661%" x2="50%" y2="84.9021742%" id="linearGradient-2">
            <stop stop-color="#FFC927" offset="0%"></stop>
            <stop stop-color="#F9FF5F" offset="100%"></stop>
        </linearGradient>
        <linearGradient x1="50%" y1="0%" x2="50%" y2="100%" id="linearGradient-3">
            <stop stop-color="#FFD349" offset="0%"></stop>
            <stop stop-color="#FFEC10" offset="100%"></stop>
        </linearGradient>
        <rect id="path-4" x="29.3630232" y="23.4148936" width="8.47630578" height="6.59574468"></rect>
        <mask id="mask-5" maskContentUnits="userSpaceOnUse" maskUnits="objectBoundingBox" x="0" y="0" width="8.47630578" height="6.59574468" fill="white">
            <use xlink:href="#path-4"></use>
        </mask>
        <linearGradient x1="50%" y1="2.91573661%" x2="50%" y2="84.9021742%" id="linearGradient-6">
            <stop stop-color="#F9FF5F" offset="0%"></stop>
            <stop stop-color="#F9FF5F" offset="100%"></stop>
        </linearGradient>
        <rect id="path-7" x="28.0589761" y="26.3829787" width="5.86821169" height="0.989361702"></rect>
        <mask id="mask-8" maskContentUnits="userSpaceOnUse" maskUnits="objectBoundingBox" x="0" y="0" width="5.86821169" height="1" fill="white">
            <use xlink:href="#path-7"></use>
        </mask>
        <linearGradient x1="50%" y1="2.91573661%" x2="50%" y2="71.9610752%" id="linearGradient-9">
            <stop stop-color="#FFC826" offset="0%"></stop>
            <stop stop-color="#F9FF5F" offset="100%"></stop>
        </linearGradient>
        <rect id="path-10" x="28.3849879" y="22.4255319" width="10.4323763" height="8.57446809"></rect>
        <mask id="mask-11" maskContentUnits="userSpaceOnUse" maskUnits="objectBoundingBox" x="0" y="0" width="10.4323763" height="8.57446809" fill="white">
            <use xlink:href="#path-10"></use>
        </mask>
    </defs>
    <g id="Page-1" stroke="none" stroke-width="1" fill="none" fill-rule="evenodd">
        <g id="Artboard" transform="translate(-552.000000, -174.000000)">
            <g id="Group-11" transform="translate(552.000000, 175.000000)">
                <g id="Group-7" transform="translate(0.186190, 0.000000)">
                    <g id="Oval-3" transform="translate(1.000000, 0.000000)" fill="url(#linearGradient-1)">
                        <path d="M62.3624074,14.8723404 C63.0284089,13.9140805 63.3828803,12.9087182 63.3828803,11.8723404 C63.3828803,6.50927827 53.890596,1.97677083 40.8566295,0.50405016 C37.9551889,0.176213538 34.8782456,0 31.6914402,0 C28.0649496,0 24.580728,0.228192449 21.3355063,0.648339738 C8.91816388,2.25596876 0,6.6739944 0,11.8723404 C0,12.9087182 0.354471455,13.9140805 1.02047291,14.8723404 C4.56810224,9.76792062 16.9551968,6 31.6914402,6 C46.4276835,6 58.8147781,9.76792062 62.3624074,14.8723404 Z" id="Combined-Shape"></path>
                    </g>
                    <path d="M20.05032,22.7625921 C23.9229268,23.3943393 28.1979715,23.7446809 32.6914402,23.7446809 C50.1941393,23.7446809 64.3828803,18.429253 64.3828803,11.8723404 C64.3828803,11.8723404 64.6437152,20.1170213 64.3828803,21.106383 C64.1220454,22.0957447 54.7319891,30.2955841 31.5176831,29.6808511 C26.6368147,29.5516018 22.4938989,29.1004693 18.9895386,28.4620947 C18.8181572,28.4569445 18.6283634,28.4247008 18.4184454,28.3617021 C18.3976135,28.3554503 18.3766574,28.3493025 18.3555791,28.3432574 C18.0051319,28.27569 17.6612993,28.2062503 17.3239752,28.1350822 C13.874029,27.6745575 8.62137069,28.8886439 7.81381035,28 C7.27491515,27.4069967 5.59340201,26.2113767 5.81381035,25.4240843 C5.89178613,25.145557 6.19990465,24.8103148 6.59746508,24.4757969 C2.94872044,22.5641296 1.49587314,20.7900986 1.2608349,20.4786026 C0.739165101,19.787234 1,11.8723404 1,11.8723404 C1,16.7340184 8.80041057,20.9131771 19.9684025,22.7491769 C20.0209033,22.753141 20.0485042,22.7553191 20.0485042,22.7553191 C20.0485042,22.7553191 20.0491254,22.7577775 20.05032,22.7625921 Z" id="Combined-Shape" stroke="url(#linearGradient-2)"></path>
                </g>
                <ellipse id="Oval-3" stroke="url(#linearGradient-2)" cx="32.8776298" cy="11.8723404" rx="31.6914402" ry="11.8723404"></ellipse>
                <ellipse id="Oval-9" fill="url(#linearGradient-3)" cx="39.143376" cy="26.712766" rx="0.652023521" ry="0.659574468"></ellipse>
                <ellipse id="Oval-9" fill="url(#linearGradient-3)" cx="22.5167762" cy="26.3829787" rx="0.652023521" ry="0.659574468"></ellipse>
                <ellipse id="Oval-9" fill="url(#linearGradient-3)" cx="27.0809409" cy="26.712766" rx="0.652023521" ry="0.659574468"></ellipse>
                <use id="Rectangle" stroke="url(#linearGradient-2)" mask="url(#mask-5)" stroke-width="2" xlink:href="#path-4"></use>
                <path d="M20.2346939,22.7553191 C20.2346939,22.7553191 10.7981764,22.0106383 9,23 C8.27961397,23.3963584 6.22040834,24.6367918 6,25.4240843 C5.77959166,26.2113767 7.4611048,27.4069967 8,28 C8.89908822,28.9893617 15.3079783,27.3723404 18.6046351,28.3617021" id="Path-17" stroke="url(#linearGradient-6)"></path>
                <ellipse id="Oval-10" fill="url(#linearGradient-3)" cx="33.6011761" cy="26.8776596" rx="0.652023521" ry="0.824468085"></ellipse>
                <use id="Rectangle-3" stroke="url(#linearGradient-2)" mask="url(#mask-8)" stroke-width="2" fill="#FFFFFF" xlink:href="#path-7"></use>
                <use id="Rectangle-2" stroke="url(#linearGradient-9)" mask="url(#mask-11)" stroke-width="2" xlink:href="#path-10"></use>
            </g>
        </g>
    </g>
</svg>