<?xml version="1.0" encoding="UTF-8"?>
<svg width="49px" height="33px" viewBox="0 0 49 33" version="1.1" xmlns="http://www.w3.org/2000/svg" xmlns:xlink="http://www.w3.org/1999/xlink">
    <!-- Generator: Sketch 41.2 (35397) - http://www.bohemiancoding.com/sketch -->
    <title>Group 8</title>
    <desc>Created with Sketch.</desc>
    <defs>
        <linearGradient x1="50%" y1="0%" x2="50%" y2="97.3094707%" id="linearGradient-1">
            <stop stop-color="#60E898" offset="0%"></stop>
            <stop stop-color="#B6B9FF" offset="100%"></stop>
        </linearGradient>
        <linearGradient x1="50%" y1="1.87667416%" x2="50%" y2="97.0762915%" id="linearGradient-2">
            <stop stop-color="#9FA4FF" offset="0%"></stop>
            <stop stop-color="#67CE8B" offset="100%"></stop>
        </linearGradient>
    </defs>
    <g id="Page-1" stroke="none" stroke-width="1" fill="none" fill-rule="evenodd">
        <g id="Artboard" transform="translate(-522.000000, -43.000000)">
            <g id="Group-8" transform="translate(520.000000, 45.000000)">
                <ellipse id="Oval" stroke="url(#linearGradient-1)" stroke-width="2" cx="11.8504274" cy="13.7442748" rx="5.42307692" ry="5.25572519"></ellipse>
                <ellipse id="Oval" stroke="url(#linearGradient-1)" stroke-width="2" cx="31.9358974" cy="13.7442748" rx="5.42307692" ry="5.25572519"></ellipse>
                <path d="M11.1631939,14.6030661 C11.6492182,14.5048691 11.980057,14.3107558 11.980057,14.0873388 C11.980057,13.9093052 11.7699753,13.7498793 11.438694,13.6427677 C11.5807651,13.324906 11.6028606,13.0621082 11.4705558,12.9429804 C11.3174553,12.8051281 10.9946363,12.8930051 10.63307,13.1392094 C10.3964462,12.771302 10.133626,12.5642753 9.93883308,12.6313479 C9.7275882,12.7040854 9.65176097,13.0800967 9.71714796,13.5716115 C9.23112365,13.6698085 8.9002849,13.8639218 8.9002849,14.0873388 C8.9002849,14.2653724 9.11036655,14.4247983 9.44164787,14.5319099 C9.29957682,14.8497715 9.2774813,15.1125694 9.40978606,15.2316971 C9.56288657,15.3695494 9.88570559,15.2816725 10.2472718,15.0354682 C10.4838956,15.4033756 10.7467158,15.6104022 10.9415088,15.5433296 C11.1527537,15.4705922 11.2285809,15.0945809 11.1631939,14.6030661 Z" id="Combined-Shape" fill="url(#linearGradient-2)"></path>
                <path d="M31.2506186,14.5429913 C31.7366429,14.4447944 32.0674817,14.250681 32.0674817,14.0272641 C32.0674817,13.8492304 31.8574,13.6898045 31.5261187,13.5826929 C31.6681898,13.2648313 31.6902853,13.0020335 31.5579805,12.8829057 C31.40488,12.7450534 31.082061,12.8329304 30.7204948,13.0791346 C30.4838709,12.7112273 30.2210508,12.5042006 30.0262578,12.5712732 C29.8150129,12.6440107 29.7391857,13.020022 29.8045727,13.5115368 C29.3185484,13.6097337 28.9877096,13.8038471 28.9877096,14.0272641 C28.9877096,14.2052977 29.1977913,14.3647236 29.5290726,14.4718352 C29.3870015,14.7896968 29.364906,15.0524947 29.4972108,15.1716224 C29.6503113,15.3094747 29.9731303,15.2215977 30.3346965,14.9753935 C30.5713204,15.3433009 30.8341406,15.5503275 31.0289335,15.4832549 C31.2401784,15.4105175 31.3160056,15.0345062 31.2506186,14.5429913 Z" id="Combined-Shape" fill="url(#linearGradient-2)" transform="translate(30.527596, 14.027264) rotate(37.000000) translate(-30.527596, -14.027264) "></path>
                <path d="M7.22133116,0 C4.81249638,1.6870229 0.34873213,9.86259542 5.85819636,8.5648855 C11.3676606,7.26717557 17.9749501,2.20610687 17.9749501,2.20610687 C17.9749501,2.20610687 16.5868183,7.64431764 17.9749501,8.5648855 C19.3447293,9.47328244 22.0623325,8.94154484 24.5669516,7.65648855 C29.1196581,5.32061069 30.9824515,2.20610687 30.9824515,2.20610687 C30.9824515,2.20610687 28.262573,8.5648855 33.5752706,8.5648855 C38.8879683,8.5648855 44.9347273,3.3740458 47.8124563,0" id="Path-2" stroke="url(#linearGradient-1)" stroke-width="2" stroke-linecap="square"></path>
                <path d="M42.7944597,15.3823987 C42.7944597,15.3823987 44.7921135,13.132954 46.7667581,12.9990196 C48.7414027,12.8650853 50.3193591,16.3116638 49.9445968,18.5602374 C49.1501371,23.3269955 48.3556775,26.5048342 45.1778387,26.5048342 C42,26.5048342 42,22.5325358 42,22.5325358" id="Path-7" stroke="url(#linearGradient-1)" stroke-width="2" stroke-linecap="round"></path>
                <path d="M19,17 C19,17 18,23 20,23 C22,23 23,23 24,19" id="Path-8" stroke="url(#linearGradient-1)" stroke-width="2"></path>
                <path d="M13,29.7777778 C13,29.7777778 23,25.7777778 29,29.7777778" id="Path-9" stroke="url(#linearGradient-1)" stroke-width="2" stroke-linecap="round"></path>
            </g>
        </g>
    </g>
</svg>