<?xml version="1.0" encoding="UTF-8"?>
<svg width="57px" height="64px" viewBox="0 0 57 64" version="1.1" xmlns="http://www.w3.org/2000/svg" xmlns:xlink="http://www.w3.org/1999/xlink">
    <!-- Generator: Sketch 41.2 (35397) - http://www.bohemiancoding.com/sketch -->
    <title>Group 5</title>
    <desc>Created with Sketch.</desc>
    <defs>
        <linearGradient x1="90.1784778%" y1="0.286686899%" x2="6.52672821%" y2="96.9822074%" id="linearGradient-1">
            <stop stop-color="#FF94BD" offset="0%"></stop>
            <stop stop-color="#AA32FF" offset="100%"></stop>
        </linearGradient>
        <linearGradient x1="104.612551%" y1="-6.63800965%" x2="10.483008%" y2="89.9044417%" id="linearGradient-2">
            <stop stop-color="#FD91BE" offset="0%"></stop>
            <stop stop-color="#AF37FB" offset="100%"></stop>
        </linearGradient>
    </defs>
    <g id="Page-1" stroke="none" stroke-width="1" fill="none" fill-rule="evenodd">
        <g id="Artboard" transform="translate(-544.000000, -81.000000)">
            <g id="Group-5" transform="translate(545.000000, 82.000000)">
                <path d="M0.578633516,46.2653734 C1.87725274,43.9519074 12.4912107,25.1336844 18.7804878,16.8285714 C25.4878049,7.97142857 32.195122,2.21428571 33.5365854,1.32857143 C34.8780488,0.442857143 38.902439,-0.442857143 34.4308943,6.2 C29.9593496,12.8428571 26.5602107,17.7142857 27.6182481,16.8285714 C28.6762855,15.9428571 42.4796748,1.32857143 44.7154472,0.442857143 C46.9512195,-0.442857143 49.1869919,1.77142857 45.6097561,6.2 C42.0325203,10.6285714 33.225977,22.1428571 34.4308943,22.1428571 C35.6358116,22.1428571 48.2926829,7.52857143 50.0813008,6.2 C51.8699187,4.87142857 53.5817439,3.83360498 54.5528455,5.75714286 C55,6.64285714 54.8716066,7.62938729 53.6585366,9.74285714 C50.1118212,15.9221179 39.796748,29.6714286 39.3495935,30.239484 C36.1895851,34.2538906 33.5365854,37.6428571 33.9837398,38.0857143 C34.4308943,38.5285714 44.7154472,30.8075394 46.9512195,30.6823411 C49.1869919,30.5571429 51.8699187,32.7714286 44.7154472,41.1857143 C38.6643089,48.3023833 25.9438869,57.6973932 22.1517043,60.4936175 C21.9612682,60.7129764 21.7336494,60.9190924 21.4577547,61.0937053 C21.4548059,61.1103004 21.4634146,61.1142857 21.4634146,61.1142857 L21.4451916,61.1016138 C20.9983841,61.3813608 20.4258592,61.5786363 19.6812411,61.6171026 C16.9101711,61.7602535 12.6232095,60.2116627 8.62432782,57.6147586 C2.85029827,53.8650599 -0.841613663,48.4083028 0.441673243,46.4322143 C0.482155394,46.3698772 0.527925418,46.3144037 0.578633516,46.2653734 Z" id="Combined-Shape" stroke="url(#linearGradient-1)"></path>
                <path d="M13.2517202,50.918657 C13.2199594,50.3656788 13.0425459,49.5428753 13.1945653,49.3126588 C14.2928064,47.6494954 15.4768961,45.9756696 16.2766247,44.6621557 C18.7861105,40.5404518 26.7541216,31.0143847 26.7480644,29.681572 C26.7420071,28.3487592 26.2673628,27.8694133 25.8464876,27.4561792 C25.4256123,27.0429451 24.2034543,26.4562119 23.2389885,27.0171952 C22.3183352,27.5526948 12.5787083,40.1884889 8.97705348,46.5169601 C8.82954971,46.7761392 9.04472519,47.6829983 9.01708725,48.1032842 C8.11293383,47.4828098 7.33917337,46.9949196 6.47594035,46.6457556 C4.56371796,45.8722921 2.49147863,45.8041681 1.80873637,46.855499 C0.542351972,48.8055599 3.88849037,53.226091 9.28254567,56.7290315 C14.676601,60.2319719 20.0759542,61.4908295 21.3423386,59.5407685 C22.1368872,58.317271 20.5382355,56.0474659 17.7603691,53.8368415 C16.4726855,52.8121036 14.8553508,51.8932913 13.2517202,50.918657 Z" id="Combined-Shape" stroke="url(#linearGradient-1)" fill="url(#linearGradient-2)"></path>
                <g id="Group" transform="translate(7.154472, 26.798599)"></g>
            </g>
        </g>
    </g>
</svg>