<?xml version="1.0" encoding="UTF-8"?>
<svg width="70px" height="41px" viewBox="0 0 70 41" version="1.1" xmlns="http://www.w3.org/2000/svg" xmlns:xlink="http://www.w3.org/1999/xlink">
    <!-- Generator: Sketch 41.2 (35397) - http://www.bohemiancoding.com/sketch -->
    <title>Group 10</title>
    <desc>Created with Sketch.</desc>
    <defs>
        <linearGradient x1="50%" y1="0%" x2="50%" y2="96.4764031%" id="linearGradient-1">
            <stop stop-color="#CCEBFF" offset="0%"></stop>
            <stop stop-color="#3C71FF" offset="100%"></stop>
        </linearGradient>
        <linearGradient x1="50%" y1="0%" x2="50%" y2="100%" id="linearGradient-2">
            <stop stop-color="#CCEAFF" offset="0%"></stop>
            <stop stop-color="#3D71FF" offset="98.7862723%"></stop>
        </linearGradient>
        <linearGradient x1="50%" y1="0%" x2="50%" y2="100%" id="linearGradient-3">
            <stop stop-color="#CAE9FF" offset="0%"></stop>
            <stop stop-color="#3C71FF" offset="100%"></stop>
        </linearGradient>
    </defs>
    <g id="Page-1" stroke="none" stroke-width="1" fill="none" fill-rule="evenodd">
        <g id="Artboard" transform="translate(-448.000000, -189.000000)" stroke="url(#linearGradient-1)">
            <g id="Group-10" transform="translate(448.000000, 189.000000)">
                <path d="M16.6254396,22.777489 C16.6254396,22.777489 38.2479646,31.5049577 55.5459845,29.3230906 C65.4791954,28.0701756 67.9081709,27.4181254 68.5194994,26.90625 C68.9727586,26.5267288 68.6358908,26.4861698 68.5194994,24.9593562 C67.7117462,14.3633075 66.4444444,7.6875 54.9444444,2.5625 C48.9931546,-0.0897052692 41.8972888,0.0965155801 37.0555556,1.28125 C32.2138223,2.46598442 23.5457173,6.62951298 20.9499446,11.8681531 C16.6254396,20.5956218 16.6254396,22.777489 16.6254396,22.777489 Z" id="Path-10"></path>
                <path d="M16.4950471,22.3078876 C16.4950471,22.3078876 3.07601073,31.1994754 1.27224389,33.7383679 C-0.531522944,36.2772604 4.82213624,30.803451 14.3667258,32.9351938 C23.9113154,35.0669366 26.0962777,38.0679707 29.3888889,39.71875 C31.9444444,41 39.6111111,38.0116321 44.7222222,34.59375 C49.8333333,31.1758679 51.1111111,29.46875 51.1111111,29.46875 C51.1111111,29.46875 42.4034114,26.3816841 35.7777778,24.34375 C29.1521442,22.3058159 23.7481393,21.78125 21.395863,21.78125 C16.3649582,21.78125 16.3649582,23.1098187 16.3649582,23.1098187" id="Path-11" fill="url(#linearGradient-2)"></path>
                <path d="M37.0555556,5.125 C35.7777778,3.84375 31.9444444,5.125 31.9444444,5.125 L34.5,6.40625 C34.5,6.40625 33.3810575,6.6071123 31.9444444,7.6875 C30.5078314,8.7678877 29.3888889,10.25 29.3888889,10.25 C29.3888889,10.25 35.7777778,8.96875 35.7777778,10.25 C35.7777778,11.53125 30.6666667,19.21875 30.6666667,19.21875 L34.5,20.5 C34.5,20.5 35.8998499,16.4114423 37.0555556,14.09375 L38.3333333,11.53125 C38.3333333,11.53125 38.8231651,11.6273693 39.6111111,12.8125 C40.3990571,13.9976307 40.8888889,15.375 40.8888889,15.375 C40.8888889,15.375 42.1666667,12.8125 42.1666667,11.53125 C42.1666667,10.25 40.8888889,8.96875 40.8888889,8.96875 C40.8888889,8.96875 43.4444444,7.6875 44.7222222,7.6875 C46.0393769,7.6875 47.2777778,7.6875 47.2777778,7.6875 C47.2777778,7.6875 43.199855,5.125 42.1666667,5.125 C40.8888889,5.125 38.3333333,6.40625 38.3333333,6.40625 C38.3333333,6.40625 37.3663811,5.43667014 37.0555556,5.125 Z" id="Path-15" fill="url(#linearGradient-3)"></path>
            </g>
        </g>
    </g>
</svg>