<?xml version="1.0" encoding="UTF-8"?>
<svg width="55px" height="66px" viewBox="0 0 55 66" version="1.1" xmlns="http://www.w3.org/2000/svg" xmlns:xlink="http://www.w3.org/1999/xlink">
    <!-- Generator: Sketch 41.2 (35397) - http://www.bohemiancoding.com/sketch -->
    <title>Group 6</title>
    <desc>Created with Sketch.</desc>
    <defs>
        <linearGradient x1="50%" y1="0%" x2="50%" y2="97.2337372%" id="linearGradient-1">
            <stop stop-color="#FFFA87" offset="0%"></stop>
            <stop stop-color="#82FFF3" offset="100%"></stop>
        </linearGradient>
        <linearGradient x1="50%" y1="0%" x2="50%" y2="100%" id="linearGradient-2">
            <stop stop-color="#FFFDB0" offset="0%"></stop>
            <stop stop-color="#B2FDC8" offset="100%"></stop>
        </linearGradient>
    </defs>
    <g id="Page-1" stroke="none" stroke-width="1" fill="none" fill-rule="evenodd">
        <g id="Artboard" transform="translate(-463.000000, -90.000000)" stroke="url(#linearGradient-1)">
            <g id="Group-6" transform="translate(464.000000, 91.000000)">
                <g id="Group-4">
                    <g id="Group-3">
                        <path d="M0.392592593,7.1552795 C0.392592593,7.1552795 5.13045106,22.5803039 6.28148148,28.2236025 C6.41772762,28.8915932 6.98163824,31.4574675 7.06666667,32.0599423 C7.1337924,32.5355663 7.41683969,34.1436453 7.45925926,34.5838509 C7.50167883,35.0240566 7.11544509,40.9305544 7.85185185,43.7267081 C8.78615907,47.2742944 9.42222222,48.4968944 11.7777778,50.0869565 C14.1333333,51.6770186 15.1988517,52.5438617 18.8444444,52.8695652 C22.4900372,53.1952688 23.5096472,56.0496894 27.4814815,56.8447205 C31.4533158,57.6397516 32.1925926,60.8198758 36.1185185,62.8074534 C40.0444444,64.7950311 38.0814815,63.2049689 43.1851852,62.8074534 C45.0674801,62.6608459 48.1774622,62.7562773 49.4666667,60.4223602 C50.7558711,58.0884432 52.2148148,56.8644067 52.2148148,54.8571429 C52.2148148,51.6770186 54.1777778,48.4968944 51.8222222,46.1118012 C49.4666667,43.7267081 45.5407407,41.3416149 43.1851852,40.5465839 C40.8296296,39.7515528 40.0444444,39.3540373 35.7259259,38.1614907 C31.4074074,36.9689441 29.7478148,34.8406215 27.4814815,33.3913043 C25.2151481,31.9419872 25.4921469,31.3503221 24.7333333,29.8136646 C23.9745198,28.2770071 24.5420561,24.9068328 23.9481481,22.2608696 C23.3928772,19.7870407 23.7594615,16.8795246 23.5555556,15.5031056 C23.3516496,14.1266866 23.1953983,10.7415926 22.7703704,7.1552795 C22.3453425,3.56896642 21.9851852,1.19254658 21.9851852,1.19254658 C21.9851852,1.19254658 21.5925926,-1.19254658 10.2074074,1.98757764 C-1.17777778,5.16770186 0.392592593,7.1552795 0.392592593,7.1552795 Z" id="Path-4"></path>
                        <path d="M7.42500892,40.0244718 C7.47441974,41.3943587 7.59467601,42.7502054 7.85185185,43.7267081 C8.78615907,47.2742944 9.42222222,48.4968944 11.7777778,50.0869565 C13.8181679,51.4642736 14.8906324,52.2989535 17.5104324,52.7093333 C17.8690654,51.7380617 18.0592593,50.6017583 18.0592593,49.2919255 C18.0592593,45.7142857 17.2109549,44.3673581 15.3111111,42.5341615 C13.6741283,40.9546046 11.7523537,39.7515528 9.38551524,39.7515528 C8.88882974,39.7515528 8.20134337,39.837523 7.42500892,40.0244718 Z" id="Combined-Shape" fill="url(#linearGradient-2)"></path>
                        <path d="M21.8665406,0.984814255 C21.4285783,0.481500848 19.4052265,-0.581568749 10.2074074,1.98757764 C1.83861987,4.32515788 0.469878877,6.01839049 0.332043402,6.7515196 C1.9327868,7.18608544 6.28635711,6.7058924 11.2634077,5.46497431 C17.0023266,4.03410112 21.5344622,2.09934973 21.8665406,0.984814255 Z" id="Combined-Shape" fill="url(#linearGradient-2)"></path>
                        <path d="M50.0710609,44.4628428 C48.5021437,44.8399696 47.3628232,46.4620169 46.7185185,46.9068323 C45.2355742,47.9306282 43.7972572,50.3436578 42.0074074,52.8695652 C40.2175576,55.3954727 38.4740741,57.1932383 38.4740741,59.2353812 C38.4740741,60.9124896 38.7585496,62.2968779 39.5843463,63.566754 C40.1939012,63.3315414 41.0994142,62.9699092 43.1851852,62.8074534 C45.0674801,62.6608459 48.1774622,62.7562773 49.4666667,60.4223602 C50.7558711,58.0884432 52.2148148,56.8644067 52.2148148,54.8571429 C52.2148148,51.6770186 54.1777778,48.4968944 51.8222222,46.1118012 C51.3034793,45.5865536 50.7085777,45.022749 50.0710609,44.4628428 Z" id="Combined-Shape" fill="url(#linearGradient-2)"></path>
                        <path d="M5.88888889,11.1304348 L6.8637569,15.9931848 C6.8637569,15.9931848 8.24444444,19.4435495 8.24444444,20.6708075 C8.24444444,21.8980654 9.42222222,24.6459627 9.42222222,24.6459627" id="Path-5"></path>
                        <path d="M18.0592593,7.55279503 C18.0592593,7.55279503 18.2919044,10.2832462 18.8251065,12.4487977 C19.3583086,14.6143492 20.4148148,17.1196687 20.4148148,17.1196687 L21.5925926,22.6583851" id="Path-5" transform="translate(19.825926, 15.105590) rotate(9.000000) translate(-19.825926, -15.105590) "></path>
                        <path d="M14.180958,9.96624347 C14.180958,9.96624347 14.8002724,11.4272725 15.3334745,13.592824 C15.8666766,15.7583755 16.1047986,15.7221831 16.702784,18.605345 C17.3007694,21.4885069 17.1388784,21.8671169 17.3783491,22.924181 C17.6178198,23.9812451 18.0224927,24.4307618 18.0224927,24.4307618" id="Path-5" transform="translate(16.101725, 17.198503) rotate(9.000000) translate(-16.101725, -17.198503) "></path>
                        <path d="M9.41000502,10.3571081 L10.2572573,13.6306409 C10.2572573,13.6306409 11.3635544,15.5045612 11.3635544,16.6971077 C11.3635544,17.8896543 13.3060236,22.4631238 13.3060236,22.4631238" id="Path-5" transform="translate(11.358014, 16.410116) rotate(7.000000) translate(-11.358014, -16.410116) "></path>
                    </g>
                </g>
                <path d="M12.9289155,7.19861761 C13.5108815,7.04615744 14.4141708,6.75030673 15.3104387,6.48730941 C15.8066777,6.341695 17.5082333,5.88731905 18.8827235,5.42034712 C20.2572137,4.9533752 20.8100201,4.66140602 21.2008821,4.40955667 M7.00684729,8.23594232 C7.00684729,8.23594232 5.67109992,8.24961893 4.6413795,8.30239093 C3.58321431,8.35662069 2.82257003,8.44889561 2.23149469,8.36556176" id="Path-6" transform="translate(11.716188, 6.404263) rotate(-2.000000) translate(-11.716188, -6.404263) "></path>
            </g>
        </g>
    </g>
</svg>