<?xml version="1.0" encoding="UTF-8" standalone="no"?>
<svg width="59px" height="49px" viewBox="0 0 59 49" version="1.1" xmlns="http://www.w3.org/2000/svg" xmlns:xlink="http://www.w3.org/1999/xlink">
    <!-- Generator: Sketch 41.2 (35397) - http://www.bohemiancoding.com/sketch -->
    <title>Group</title>
    <desc>Created with Sketch.</desc>
    <defs></defs>
    <g id="Page-1" stroke="none" stroke-width="1" fill="none" fill-rule="evenodd">
        <g id="lemon-purple" transform="translate(-902.000000, -792.000000)">
            <g id="Group" transform="translate(902.000000, 792.000000)">
                <path d="M58.596923,20.2247205 C58.8798502,22.2642065 59.4701334,28.0974716 58.0677121,31.622573 C56.6652909,35.1476744 52.7673767,46.3914685 37.8981218,47.9212062 C23.0288668,49.450944 17.2823298,47.1644717 17.2823298,47.1644717 C17.2823298,47.1644717 2.39961405,42.351196 0.664410636,28.634827 C-1.07079278,14.918458 6.45232708,8.83894645 6.96508601,8.21112762 C7.47784493,7.58330878 14.7755754,-0.166195537 29.6971788,0.604096183 C44.6187822,1.3743879 51.0296835,7.03757274 53.1330638,9.0031107 C55.2364442,10.9686487 58.3139959,18.1852345 58.596923,20.2247205 Z" id="body" fill="#47397D"></path>
                <g id="stripes" transform="translate(0.546005, 0.415529)" fill="#BB88DD">
                    <path d="M52.9714402,26.4783157 C52.9714402,26.4783157 52.3129803,25.6533025 51.5853465,25.3503621 C50.8577127,25.0474218 50.3004584,24.3401091 48.8228807,24.3401091 C47.345303,24.3401091 48.0952469,25.0650461 47.5933317,24.7950126 C47.0914164,24.5249792 47.0330861,24.6635084 46.6353678,23.6684148 C46.2376495,22.6733211 45.5722098,22.9789729 43.6026879,22.3553447 C41.6331659,21.7317165 41.6278065,21.9703221 40.8903264,21.9703221 C40.1528462,21.9703221 40.161197,22.8982463 39.7896525,22.7679746 C39.4181081,22.6377028 37.1726387,23.0242044 37.1726387,22.1470578 C37.1726387,21.2699112 37.2723488,20.8408895 35.6771133,20.6778342 C34.0818778,20.5147789 32.4158482,21.0533668 31.8420171,21.0533668 C31.268186,21.0533668 31.7658636,22.5690544 31.2917425,22.3580561 C30.8176214,22.1470578 29.6035274,21.7317165 29.0768093,20.6160876 C28.5500912,19.5004587 24.5348938,20.5393049 22.3684446,19.9814905 C20.2019954,19.423676 20.9586697,20.5529853 20.3280039,20.5529853 C19.6973381,20.5529853 20.8130931,19.5416231 19.3438662,19.1399622 C17.8746392,18.7383013 15.9301694,19.0741485 15.9301694,19.0741485 C15.9301694,19.0741485 14.3626034,18.7412592 13.8012361,18.2518466 C13.2398688,17.7624341 12.0520733,18.2133937 12.0520733,18.2133937 C12.0520733,18.2133937 11.5295928,19.1562308 10.5690116,19.1562307 C9.60843027,19.1562307 9.32151472,17.6446103 8.01992521,17.6446103 C6.71833569,17.6446103 6.39814193,19.0905403 6.39814193,19.0905403 C6.39814193,19.0905403 5.96166137,19.7346274 4.14868415,18.8601922 C2.33570693,17.9857571 3.18673185,17.4941261 2.89009458,17.4941261 C2.5934573,17.4941261 2.29133598,16.8430139 1.72996864,17.4186991 C1.16860129,17.9943843 0.575451383,18.1521401 0.575451383,18.1521401 C0.575451383,18.1521401 -0.0994607328,20.9428143 0.0876201694,21.1154831 C0.274701072,21.2881519 0.906613234,20.4233298 2.07795656,20.6645236 C3.24929989,20.9057173 3.50418358,22.2569936 4.77797894,22.2569938 C6.0517743,22.256994 5.98646422,21.71705 7.42390863,22.1762673 C8.86135305,22.6354846 8.50962597,21.4470165 8.86297332,21.4470167 C9.21632068,21.4470169 9.00705427,22.6586546 9.63772008,22.6586548 C10.2683859,22.658655 10.5926927,23.6456139 11.7652824,23.4152661 C12.9378721,23.1849183 14.3183571,22.9082291 14.3183571,22.177623 C14.3183571,21.4470169 14.856168,21.3181005 15.0863735,21.4579856 C15.316579,21.5978708 14.8093043,22.2762201 15.1170343,22.6051657 C15.4247643,22.9341113 16.5238188,24.7581617 17.6534076,24.086714 C18.7829964,23.4152663 21.6864291,22.4023015 22.47663,22.7820247 C23.2668308,23.1617479 22.9744331,23.6318103 23.6827472,23.6318105 C24.3910612,23.6318107 25.702125,24.548766 26.0209468,24.5487658 C26.3397686,24.5487655 26.9802827,24.4187403 27.1354554,24.2527273 C27.2906282,24.0867142 27.4831951,23.1987215 27.9421094,23.4152661 C28.4010238,23.6318107 29.0011543,25.1927296 29.0011543,25.1927296 C29.0011543,25.1927296 31.8107321,25.3449391 31.8107331,25.3449393 C31.8107341,25.3449395 32.8861065,24.1744654 33.6485132,24.1744656 C34.4109198,24.1744658 34.6421243,25.9313468 36.8515725,25.931347 C39.0610207,25.9313472 37.4398625,26.3198203 40.9853002,26.1255837 C44.5307378,25.9313472 43.3778428,24.2129184 45.4855867,24.7028241 C47.5933307,25.1927299 46.8509916,25.792078 48.122044,26.135197 C49.3930963,26.4783159 48.0057581,25.4142037 49.5345609,25.7747004 C51.0633636,26.1351972 51.5235272,26.0550864 51.8118128,26.2667012 C52.1000984,26.4783159 52.5511635,26.8850295 52.7613014,26.8850297 C52.9714393,26.88503 52.9714402,26.4783157 52.9714402,26.4783157 Z" id="Path-44"></path>
                    <path d="M53.0286488,27.7282835 C53.0286488,27.7282835 53.5166047,27.2609321 52.6309305,27.2609321 C51.7452564,27.2609321 51.4375264,27.1366995 51.4375264,27.3156536 C51.4375264,27.4946078 51.2516919,27.977858 50.9523126,27.977858 C50.6529333,27.977858 49.9903603,27.9997959 49.5619811,27.9997959 C49.133602,27.9997959 48.4918435,28.068321 48.8799647,28.2848655 C49.2680859,28.5014099 49.2984974,29.014116 49.8072678,28.8824886 C50.3160381,28.7508612 50.666768,28.8880347 51.1865064,28.5864501 C51.7062449,28.2848655 51.7465027,28.0190224 52.1887167,28.0190224 C52.6309306,28.0190224 53.0286488,27.7282835 53.0286488,27.7282835 Z" id="Path-45"></path>
                    <path d="M38.1999011,28.3929528 C38.1999011,28.3929528 39.0188942,28.0749764 39.2504707,28.3463656 C39.4820472,28.6177548 38.8139901,29.154987 39.6455716,29.154987 C40.477153,29.154987 41.7301339,28.0065745 41.7301339,29.1112344 C41.7301339,30.2158944 40.984677,31.5632271 40.0488986,31.7153134 C39.1131201,31.8673997 38.5587325,32.319715 38.1733533,32.5568417 C37.7879741,32.7939685 33.572235,32.6677636 33.0548647,33.4189522 C32.5374944,34.1701409 31.8487475,32.4172034 29.543826,32.1334894 C27.2389046,31.8497755 27.6144374,32.0730984 26.7093198,32.391075 C25.8042022,32.7090515 24.2062247,31.8428736 23.5658372,32.1169744 C22.9254496,32.3910751 22.626195,33.8726231 22.1063319,33.7190579 C21.5864689,33.5654927 19.4269994,33.1571764 19.1414548,32.5033527 C18.8559103,31.849529 18.1045954,31.6236178 17.7427727,32.0634853 C17.38095,32.5033528 17.8689059,32.8926888 17.1605909,32.8926889 C16.4522759,32.8926891 15.3350253,32.7037519 15.1715009,32.1156186 C15.0079765,31.5274854 14.1333951,30.6653751 13.7466449,31.0478095 C13.3598947,31.4302438 13.4973698,31.809967 12.896991,31.8099669 C12.2966121,31.8099668 11.0977239,31.3850123 10.4711711,30.4982525 C9.84461835,29.6114927 9.17082797,30.9547583 7.89578625,30.9547582 C6.62074452,30.9547581 6.53200261,31.8510081 5.91380057,31.4028831 C5.29559852,30.9547581 5.35529988,30.0077309 3.91361781,30.2529916 C2.47193573,30.4982524 2.34592721,30.5477977 1.73046719,30.1009052 C1.11500716,29.6540128 1.27192579,29.2825473 0.816998877,29.2825473 C0.362071966,29.2825473 0.262361958,29.0699468 0.262361958,29.0699468 L0.00735361308,27.2897718 C0.00735361308,27.2897718 0.726636682,27.5145738 0.726636682,27.0403206 C0.726636682,26.5660674 1.07574635,26.1824005 1.27267361,26.0329022 C1.46960088,25.883404 2.8360019,25.8258478 2.96500172,26.5578098 C3.09400154,27.2897718 3.30862734,27.5609145 3.61112257,27.4253432 C3.91361781,27.2897718 3.58769072,26.6578861 4.66044577,26.6578861 C5.73320081,26.6578861 6.24895083,27.5969026 6.77006026,27.4433372 C7.29116969,27.2897718 8.36267836,27.2048549 8.36267836,27.3994614 C8.36267836,27.5940679 8.2654611,28.4492766 8.45129563,28.4492765 C8.63713015,28.4492765 8.4056783,27.347328 8.70231557,27.347328 C8.99895285,27.347328 10.5154174,26.8715959 10.6470346,27.2732568 C10.7786518,27.6749177 10.4780262,28.4286944 11.0310428,28.4286944 C11.5840594,28.4286943 13.3596454,28.2354436 13.7020246,28.8769425 C14.0444039,29.5184414 14.1235487,30.0858692 14.6475248,29.7473105 C15.1715009,29.4087519 14.7085972,28.5137346 15.3614484,28.5137346 C16.0142997,28.5137346 17.4863934,28.4480441 17.8716479,28.9523695 C18.2569024,29.4566949 18.1573171,29.6197502 18.649386,29.6197502 C19.1414548,29.6197502 18.5869426,28.8891439 19.1510519,28.7014392 C19.7151613,28.5137346 21.2758722,27.702525 21.6141384,28.1081298 C21.9524046,28.5137346 22.2060419,28.8785447 22.5373284,28.8785447 C22.8686149,28.8785447 23.0473451,27.7684619 23.5644662,27.9382958 C24.0815872,28.1081297 25.2485682,27.4927591 25.7698023,27.4927591 C26.2910363,27.4927591 26.3711782,29.8830051 26.9312992,30.0679984 C27.4914202,30.2529916 27.5356665,30.8875888 27.7547792,30.8875888 C27.973892,30.8875888 28.6670012,31.1687144 28.3481784,30.710853 C28.0293557,30.2529916 27.264206,29.793528 27.264206,29.3360364 C27.264206,28.8785447 26.4189144,28.5178017 26.9483745,27.8955292 C27.4778347,27.2732568 28.5905984,27.2403499 30.3052366,27.5679396 C32.0198748,27.8955292 32.2748832,28.5351795 32.2748832,28.7068621 C32.2748832,28.8785447 32.9664967,29.3550164 33.3976179,28.9343755 C33.828739,28.5137346 33.0401575,27.9516065 34.1308603,27.9516065 C35.2215632,27.9516065 35.6220235,28.5287707 36.3581326,28.5287707 C37.0942418,28.5287706 38.1999011,28.3929528 38.1999011,28.3929528 Z" id="Path-46"></path>
                    <path d="M53.613448,25.1493468 C53.613448,25.1493468 53.7061783,25.9361536 53.9017346,25.9361536 C54.0972908,25.9361536 53.4775931,26.5473339 53.3459759,26.3636963 C53.2143587,26.1800588 51.8391084,22.0408192 50.508603,20.9457725 C49.1780976,19.8507258 48.8357184,19.5862384 48.225867,18.9406723 C47.6160157,18.2951062 47.2737611,17.8139512 47.5482129,17.6728338 C47.8226647,17.5317163 48.4462261,17.6782566 48.8510488,18.0566239 C49.2558714,18.4349912 49.661068,19.4629917 50.0848355,19.6932165 C50.5086029,19.9234413 52.9622174,21.7831106 52.962217,23.120953 C52.9622167,24.4587955 53.613448,25.1493468 53.613448,25.1493468 Z" id="Path-47"></path>
                    <path d="M43.9610207,17.3293453 C44.3103797,17.5117504 45.6990908,18.5436948 46.0290063,18.804115 C46.3589218,19.0645352 47.1780395,19.4923244 47.1780395,19.6965442 C47.1780395,19.9007639 46.9008457,19.8459191 46.5584664,19.6047254 C46.2160872,19.3635316 42.734463,16.8293335 42.235539,16.4470223 C41.7366151,16.0647111 42.3227853,15.6042616 41.3054939,15.3985629 C40.2882026,15.1928642 38.6554512,14.8666302 38.1898055,14.5171026 C37.7241597,14.1675751 36.7346625,13.2698463 36.0055331,13.2698463 C35.2764037,13.2698463 35.7490291,14.0483955 35.4426701,14.0483955 C35.1363111,14.0483955 34.9907345,13.0629151 34.7606537,13.0629151 C34.5305728,13.0629151 34.1869472,12.6009866 33.9886489,13.3246911 C33.7903506,14.0483955 33.7225478,14.2171202 33.5048061,14.0662663 C33.2870644,13.9154123 33.3038904,12.6669235 32.7784187,12.6669235 C32.252947,12.6669235 29.3910205,13.2782271 29.2132874,12.9725753 C29.0355543,12.6669235 29.6986258,11.7800405 28.8155691,11.6156294 C27.9325123,11.4512183 25.8450833,11.2757151 25.8450833,11.5703979 C25.8450833,11.8650807 25.6206112,12.6846711 25.2144175,12.4983221 C24.8082239,12.3119731 23.9793844,12.4640595 23.9793844,11.928183 C23.9793844,11.3923064 23.3487186,10.2355131 22.7305166,10.2355131 C22.1123145,10.2355132 21.5342458,9.85443442 21.3152577,9.85443442 C21.0962695,9.85443442 20.807983,10.5245266 21.0616203,11.3099777 C21.3152577,12.0954287 20.4683458,12.5229714 20.4683458,12.2255772 C20.4683458,11.928183 20.8686815,10.3122958 20.2575837,9.94083033 C19.646486,9.56936486 18.7828727,9.59253523 18.5625136,9.76668278 C18.3421545,9.94083033 17.1680692,10.8220441 16.9698955,10.6726691 C16.7717219,10.5232941 17.1142257,9.63912248 16.5624555,9.7899764 C16.0106852,9.94083033 15.2207327,9.93257281 14.9130027,9.93257281 C14.6052727,9.9325728 14.1493487,11.5936914 13.8083404,11.3524978 C13.4673322,11.1113041 12.0743834,10.6507311 11.654355,10.7810029 C11.2343266,10.9112747 10.8933184,11.2511891 10.5842173,11.251189 C10.2751163,11.2511889 10.539971,12.3462358 10.2986728,12.3462357 C10.0573746,12.3462356 10.3540119,10.7248025 10.0698383,10.7248024 C9.78566481,10.7248024 9.62637807,10.0066441 9.19799895,10.0066441 C8.76961983,10.0066441 8.6781359,10.5860267 7.51800995,11.4661312 C6.35788401,12.3462356 5.49003303,12.0060749 5.18093201,12.1761553 C4.87183098,12.3462356 4.06654803,12.5351729 3.71170504,13.0067146 C3.35686205,13.4782563 2.78153531,13.8456548 2.56391821,13.8456547 C2.34630112,13.8456547 2.09528118,13.9963854 2.09528118,13.9963854 C2.09528118,13.9963854 1.49789359,14.9711435 1.49789359,15.1848531 C1.49789359,15.3985628 2.63857608,14.6970428 2.80222513,14.6970428 C2.96587418,14.6970427 3.42030254,14.7834388 3.67543553,14.4983691 C3.93056851,14.2132995 4.50975902,13.7092207 4.68312979,13.8528031 C4.85650057,13.9963854 5.14740452,14.9972717 5.62015459,14.7478204 C6.09290467,14.4983691 6.52514755,13.467657 7.02157875,13.4676572 C7.51800995,13.4676574 7.46641002,14.5368222 7.83932545,14.5368221 C8.21224088,14.536822 9.91528782,15.033383 10.1069803,14.5148842 C10.2986728,13.9963854 10.8596662,12.9413937 11.634413,12.9413939 C12.4091598,12.9413941 14.0531285,12.7799408 14.0531285,13.123799 C14.0531285,13.4676571 14.0392937,13.9626159 14.6810523,13.9626158 C15.3228108,13.9626158 16.2931138,14.4809914 16.722864,14.2218036 C17.1526141,13.9626158 17.2854777,13.3473683 17.5281469,13.3473684 C17.7708161,13.3473686 18.0758041,13.2475387 18.0758041,13.6050772 C18.0758041,13.9626158 18.2989053,14.9223378 18.7037279,14.9223377 C19.1085505,14.9223376 21.6838108,14.0864788 22.1148073,14.5044082 C22.5458038,14.9223376 22.9944988,15.6490002 23.4869416,15.6490001 C23.9793844,15.649 25.0906525,14.7942845 25.3359391,14.3784501 C25.5812257,13.9626158 26.3214479,14.2614891 26.188335,14.5046547 C26.0552221,14.7478203 25.6295851,16.0163985 26.1106858,16.0163984 C26.5917866,16.0163984 27.2527393,16.6810678 28.1441468,16.4960745 C29.0355543,16.3110812 29.8393416,16.4386416 29.9820515,16.7333243 C30.1247615,17.0280071 30.8310823,17.3775348 31.8047505,17.3775347 C32.7784187,17.3775347 35.1522647,16.8362354 35.5788989,16.4263169 C36.0055331,16.0163984 36.3884195,16.9319981 36.9484159,16.931998 C37.5084122,16.9319979 38.448179,17.4693531 38.448179,17.652991 C38.448179,17.836629 40.2904461,18.0451615 40.5870833,18.4246385 C40.8837206,18.8041154 40.3209822,19.5471688 40.9821842,19.7117035 C41.6433862,19.8762382 42.2461332,20.6190451 42.919799,20.3901765 C43.5934647,20.1613078 44.041038,21.1206591 44.5456953,20.9891553 C45.0503526,20.8576515 45.9928614,21.1317513 46.2756639,21.4264345 C46.5584664,21.7211177 46.794156,22.2652519 47.3028016,22.2652514 C47.8114473,22.2652508 48.4613073,21.6596178 48.7193069,21.6596172 C48.9773066,21.6596167 48.9869037,20.6114038 48.4477218,20.1615539 C47.9085399,19.7117039 47.3292248,18.5181823 46.6791155,18.2687314 C46.0290063,18.0192806 44.6624806,17.2520697 44.1897306,16.8391932 C43.7169805,16.4263168 43.5881053,16.5320626 43.5881053,16.6856279 C43.5881053,16.8391932 43.6116618,17.1469402 43.9610207,17.3293453 Z" id="Path-48"></path>
                    <path d="M47.3808247,15.8450856 C47.1188367,15.8450856 46.044586,15.8984514 45.0009961,14.9007695 C43.9574062,13.9030877 43.2492159,14.8626863 42.7418166,14.2855221 C42.2344173,13.708358 41.8809453,13.1272499 41.8809453,12.5694354 C41.8809453,12.011621 41.5371951,11.4538065 40.9730857,11.4538065 C40.4089763,11.4538065 39.4015313,11.7826287 38.7942974,11.6182176 C38.1870634,11.4538065 37.3332965,11.1329954 37.3332965,10.7095198 C37.3332965,10.2860443 36.453231,10.6259586 36.1994691,10.2544931 C35.9457071,9.88302764 36.8286392,9.32508995 35.9457071,9.07428296 C35.062775,8.82347598 33.137624,9.76508058 32.7522448,9.22920403 C32.3668656,8.69332749 32.3972772,8.1353898 31.6141797,8.13538979 C30.8310823,8.13538978 29.8571647,8.48491736 29.4463595,8.77960016 C29.0355543,9.07428296 29.6556259,9.4952936 29.1483512,9.4952936 C28.6410766,9.4952936 29.0238384,8.87560932 28.7714474,8.87560932 C28.5190564,8.87560932 26.9016355,8.67816815 26.9016355,8.22042999 C26.9016355,7.76269184 27.2552321,7.29250578 26.424897,7.29250578 C25.5945619,7.29250578 25.9093963,7.91477824 25.4282955,7.91477824 C24.9471947,7.91477824 23.728863,8.29585696 23.728863,7.71746031 C23.728863,7.13906367 24.1836653,6.89910239 23.629153,6.73469132 C23.0746407,6.57028026 22.7336325,6.69525239 22.7336325,6.99387908 C22.7336325,7.29250578 22.2886766,7.74901145 22.1251522,7.74901146 C21.9616278,7.74901148 20.8001308,6.92806536 20.8001308,6.68687161 C20.8001308,6.44567787 21.0203653,5.38735866 20.3343604,5.51898612 C19.6483556,5.65061358 19.6705411,5.63828891 19.2629764,5.90142055 C18.8554118,6.1645522 18.0846534,6.19191291 17.7741814,6.811474 C17.4637093,7.43103509 15.6715466,7.76121283 15.6715466,7.37754598 C15.6715466,6.99387914 15.836442,6.38380805 15.575825,6.38380804 C15.3152079,6.38380803 14.5680061,6.02195575 14.2256268,6.4167149 C13.8832476,6.81147406 12.6342551,7.27204677 12.4360815,7.51052915 C12.2379078,7.74901152 11.7221578,7.29829832 11.4796132,7.60653831 C11.2370686,7.91477829 10.8601648,8.23977967 10.6507738,7.92315901 C10.4413827,7.60653836 11.2757062,6.89392598 11.7900852,6.71977848 C12.3044642,6.54563098 12.9103271,6.02072334 12.5941218,6.02072333 C12.2779165,6.02072333 10.8710082,6.66752183 10.4843827,6.83070048 C10.0977571,6.99387914 8.91881093,7.25355977 8.29923787,7.25355983 C7.6796648,7.25355988 6.58871268,7.93203272 6.58871268,7.93203277 C6.58871268,7.93203283 6.32822029,7.92106382 6.32822029,7.92106382 C6.32822029,7.92106382 7.92482679,6.16381273 8.11203233,6.29026381 C8.29923787,6.4167149 8.57643169,6.18451817 9.2154482,5.85175214 C9.85446471,5.51898612 11.1979324,4.84433383 11.8170069,4.84433382 C12.4360815,4.84433381 13.0560284,4.01229551 14.1830008,4.24128784 C15.3099732,4.47028016 15.2517674,4.93898726 16.1942763,4.67856704 C17.1367851,4.41814682 16.7750871,4.00292875 17.1700634,3.77393644 C17.5650396,3.54494414 17.5566889,3.34762619 18.5838266,3.34762619 C19.6109643,3.34762619 19.1230085,3.34885866 19.5097587,3.89447169 C19.8965089,4.44008472 19.6707903,4.66069627 20.4233516,4.34271985 C21.1759129,4.02474343 20.5452471,3.08190636 21.2091911,2.95163463 C21.8731351,2.82136289 23.0732697,2.53506086 23.5030199,3.21476628 C23.93277,3.89447169 23.9771409,3.69444233 24.2085928,3.69444234 C24.4400447,3.69444235 24.4859113,3.34762618 24.6938066,3.34762619 C24.901702,3.3476262 26.5692272,3.17372513 26.5692272,3.53409841 C26.5692272,3.8944717 26.434868,4.39362072 27.1679858,4.53609388 C27.9011037,4.67856705 27.3396117,3.80413187 27.7041764,3.80413188 C28.0687411,3.80413189 29.9717066,3.83568302 30.1380977,4.08920144 C30.3044888,4.34271986 30.483219,5.06100134 31.410522,5.06100147 C32.3378251,5.0610016 33.0394096,4.83324151 33.4856119,5.06100136 C33.9318142,5.28876122 33.3247049,6.24133499 33.6989914,6.53601768 C34.0732778,6.83070037 34.3588223,6.64139359 34.3588223,6.64139359 C34.3588223,6.64139359 33.9901446,5.63668681 34.7317378,5.63668669 C35.4733309,5.63668658 36.2576748,5.60636812 36.4767875,5.87788044 C36.6959003,6.14939275 36.5848483,6.68625549 37.4803688,6.84006723 C38.3758893,6.99387897 39.6162818,7.40724854 39.958661,7.20056376 C40.3010402,6.99387897 40.6975122,7.6199723 41.0593349,7.92020109 C41.4211575,8.22042988 41.2360708,9.12518395 41.5585081,9.12518384 C41.8809453,9.12518373 42.6685297,9.65144725 42.9750134,9.65144714 C43.281497,9.65144703 44.2127885,9.81721403 44.3778086,10.0995721 C44.5428286,10.3819301 44.4137042,11.3783797 44.8850832,11.7046135 C45.3564623,12.0308473 45.9120963,12.348824 45.7707574,12.7504848 C45.6294184,13.1521456 45.7209024,13.5332245 45.9815194,13.5332244 C46.2421364,13.5332243 46.68273,14.5830397 47.1638308,14.5830396 C47.6449316,14.5830395 47.3829436,15.0300554 47.6116534,15.2136928 C47.8403632,15.3973303 47.6428128,15.8450856 47.3808247,15.8450856 Z" id="Path-49"></path>
                    <path d="M41.7465861,10.2934391 C41.7465861,10.2934391 42.0819856,10.7319507 42.4077881,10.7319507 C42.7335905,10.7319507 43.1356711,10.6057461 42.9069613,10.4495926 C42.6782515,10.2934391 42.4121504,9.79305757 42.0032147,9.79305757 C41.594279,9.79305757 41.7465861,10.2934391 41.7465861,10.2934391 Z" id="Path-50"></path>
                    <path d="M53.5414075,24.0694594 C53.5414075,24.0694594 53.300234,23.5541651 53.300234,23.2087047 C53.300234,22.8632442 52.6571044,21.2186406 52.6571044,21.0239109 C52.6571044,20.8291811 52.6779189,20.0081118 52.0153459,19.0666304 C51.3527729,18.1251491 51.9086562,17.3136929 51.4983495,17.051917 C51.0880428,16.7901411 50.3452032,17.1246325 49.9792675,15.9472571 C49.6133318,14.7698816 49.8227228,14.3888028 49.4581581,13.7967258 C49.0935934,13.2046488 48.3811654,12.2713017 47.8406125,11.954681 C47.3000596,11.6380603 46.2507364,11.2638834 46.0192846,10.7101361 C45.7878327,10.1563888 45.7571719,9.86035026 45.2707117,9.5121784 C44.7842515,9.16400654 43.999783,8.57180627 43.8222992,8.19910832 C43.6448154,7.82641037 43.6019401,7.3342864 43.8222992,7.3342864 C44.0426583,7.3342864 44.1896059,7.95655886 44.4848722,7.95655886 C44.7801385,7.95655886 45.1668886,7.9978465 45.1668886,7.8346679 C45.1668887,7.6714893 45.4427115,6.86422358 45.730998,6.86422358 C46.0192845,6.86422358 47.1558538,7.10541732 47.155854,7.7290455 C47.1558542,8.35267368 48.135845,9.2600157 48.3714436,9.2600157 C48.6070423,9.2600157 49.3375088,10.9235993 49.337509,11.4391402 C49.3375092,11.954681 49.7422068,14.0050127 50.2370179,14.0050127 C50.731829,14.0050127 51.4817725,14.1200018 51.4817727,14.6053473 C51.4817729,15.0906927 52.2011797,15.7691656 52.2011804,16.0748174 C52.2011811,16.3804691 52.0777896,17.1549512 52.3674468,17.1549512 C52.6571041,17.1549512 53.1564026,17.6141683 52.9067533,18.0609375 C52.6571041,18.5077067 52.6212091,19.3603272 52.9607214,19.3603272 C53.3002337,19.3603272 53.4001936,20.037691 53.4001933,20.5308009 C53.4001929,21.0239109 53.2588546,22.1288173 53.5430278,22.2892845 C53.827201,22.4497516 53.8937581,23.1271154 53.8937578,23.5982874 C53.8937575,24.0694594 53.7939231,24.4371043 53.7939231,24.4371043 L53.5414075,24.0694594 Z" id="Path-52"></path>
                    <path d="M44.3065159,6.27079084 C44.3065159,6.27079084 43.7394152,5.96785051 43.7394152,6.2611776 C43.7394152,6.55450468 43.3708621,7.69515263 42.988225,7.34956899 C42.6055878,7.00398534 42.4572692,6.8382185 42.1841884,6.19265245 C41.9111076,5.54708639 41.4205344,5.16218696 40.6594977,4.99765268 C39.8984611,4.8331184 39.8721626,4.48506976 39.3759806,4.35344231 C38.8797987,4.22181486 38.2824111,4.80846904 37.9178464,4.58095567 C37.5532817,4.35344231 36.4555992,4.06837275 36.4555992,3.73942737 C36.4555992,3.410482 36.2919501,3.04998547 35.9495709,3.04998547 C35.6071916,3.04998547 35.4755744,3.12270101 35.4755744,3.43106419 C35.4755744,3.73942737 34.7698768,3.4640943 34.6368886,3.18161292 C34.5039004,2.89913154 34.2709529,2.74704515 34.0284083,2.5058514 C33.7858637,2.26465766 33.1525805,1.71904463 32.6895522,1.71904463 C32.2265238,1.71904463 30.5617406,1.19549275 30.5617406,1.45726869 C30.5617406,1.71904463 29.7687968,1.510881 28.948308,1.35731563 C28.1278193,1.20375027 27.6316374,0.447262185 27.3655363,0.447262185 C27.0994352,0.447262185 26.1762452,0.663806593 25.7244342,0.466488666 C25.2726232,0.269170739 23.3817476,0.363824189 23.3817476,0.363824189 C23.3817476,0.363824189 27.1403163,-0.0670461817 29.4135799,0.0644580171 C31.6868434,0.195962216 34.247521,0.485961622 34.5649728,0.921638638 C34.8824245,1.35731565 34.8270855,1.99610313 35.2913602,1.99610315 C35.7556349,1.99610317 35.3412152,1.1502612 36.5637845,1.65890025 C37.7863538,2.1675393 37.9873942,2.64721544 38.4516689,2.64721534 C38.9159436,2.64721524 40.141255,2.69947203 40.141255,2.94054243 C40.141255,3.18161282 39.9665132,3.4493048 40.451727,3.59436604 C40.9369408,3.73942727 41.0435059,2.96691732 41.5246067,3.35317229 C42.0057075,3.73942727 41.6924934,4.26482829 42.0459654,4.26482795 C42.3994374,4.26482761 42.7959093,4.31609843 42.7959093,4.65687563 C42.7959093,4.99765282 42.5438922,5.63952123 43.4252041,5.63952137 C44.3065159,5.63952151 44.4952171,5.3106991 44.6894023,5.4751103 C44.8835876,5.63952151 44.7185675,6.00556385 44.7185675,6.21126269 C44.7185675,6.41696153 44.3065159,6.27079084 44.3065159,6.27079084 Z" id="Path-53"></path>
                    <path d="M53.4135295,28.0967911 C53.2720659,27.9226435 52.8617592,27.9021846 52.6622146,28.1296979 C52.4626699,28.3572113 51.6212421,28.810759 51.6212421,28.9821952 C51.6212421,29.1536313 51.2845962,29.960897 50.9130517,29.960897 C50.5415073,29.960897 50.0245109,30.3050018 49.8913981,30.6216224 C49.7582852,30.9382431 49.8234706,31.3522286 49.5268334,31.3522287 C49.2301961,31.3522289 48.9141154,31.0988337 48.4594377,31.5140516 C48.0047601,31.9292696 47.8148125,32.7682099 47.4170942,32.7682098 C47.0193759,32.7682097 46.765614,33.0395991 46.765614,33.3233128 C46.765614,33.6070266 47.5751346,33.8826063 48.1586874,33.7180719 C48.7422402,33.5535375 48.4554493,33.0997435 48.8753531,32.9339766 C49.2952569,32.7682097 50.183673,32.7844785 50.4816813,32.269184 C50.7796896,31.7538896 51.0194922,30.6588428 51.3203671,30.6588429 C51.6212421,30.6588431 52.3017629,29.7225379 52.3017629,29.5156068 C52.3017629,29.3086756 52.4472149,29.2098318 52.7785014,28.8371338 C53.1097879,28.4644359 53.554993,28.2709386 53.4135295,28.0967911 Z" id="Path-54"></path>
                    <path d="M27.7735995,37.2975251 C27.442313,37.5373631 27.6528258,38.3255256 27.3313856,38.3255256 C27.0099455,38.3255256 26.6446329,38.7271865 27.0985627,38.9656689 C27.5524926,39.2041512 27.8776719,39.2713206 28.1534946,39.0191579 C28.4293174,38.7669952 28.7718214,40.1567247 28.3407002,40.1567247 C27.909579,40.1567247 27.714272,39.8937163 27.5228288,40.0252205 C27.3313856,40.1567247 26.9200818,41.0408964 27.3468407,41.1833695 C27.7735995,41.3258427 28.1923816,41.4683158 28.3463089,41.7069214 C28.5002361,41.945527 29.4760232,42.3813272 29.9722052,42.0441243 C30.4683872,41.7069214 32.684691,41.2876362 32.6846913,40.9394644 C32.6846916,40.5912925 32.6944132,40.3317668 33.2044297,40.0321223 C33.7144462,39.7324779 34.7803466,39.4764349 34.9563345,39.6044564 C35.1323225,39.7324779 35.1809315,40.1391005 35.994565,40.1391005 C36.8081985,40.1391005 37.7618004,39.7046559 37.7618003,39.3619069 C37.7618001,39.0191579 37.8850669,38.8249212 38.5684542,38.5752234 C39.2518415,38.3255256 39.7743223,38.4724357 40.2789794,38.2984114 C40.7836365,38.1243871 41.3243144,37.2705341 40.8821003,37.1402623 C40.4398863,37.0099906 40.4398866,36.3411309 40.4398864,36.1355555 C40.4398863,35.92998 41.0220684,35.022638 40.6505238,34.6498168 C40.2789792,34.2769956 39.3989141,33.7191811 38.8348046,34.0467708 C38.270695,34.3743605 38.1737274,34.8869434 37.7523278,34.8869434 C37.3309282,34.8869434 36.5688948,34.8459022 36.2817298,35.0432202 C35.9945648,35.2405381 36.1056172,35.6983995 35.8852579,35.6983995 C35.6648986,35.6983995 35.3101806,35.6983995 35.0023258,35.6983995 C34.694471,35.6983995 34.8053987,36.2356318 34.4935555,36.56051 C34.1817122,36.8853882 33.5803366,37.543279 33.1325139,37.2362715 C32.6846911,36.929264 31.7590084,37.355451 31.1394354,37.355451 C30.5198625,37.355451 30.3572104,36.4453976 29.6963824,36.9004243 C29.0355543,37.355451 29.9244689,37.8708686 29.4800116,37.8708686 C29.0355543,37.8708686 29.1376325,37.327967 28.8215517,37.327967 C28.5054709,37.327967 28.104886,37.0576871 27.7735995,37.2975251 Z" id="Path-55"></path>
                    <path d="M24.6567893,39.7623354 C24.6567893,39.7623354 24.5706648,40.4737152 24.9076846,40.4737152 C25.2447044,40.4737152 25.8199065,40.8656396 25.5968054,41.2357494 C25.3737043,41.6058591 25.0007889,41.8882173 24.1040219,41.6360546 C23.207255,41.3838919 22.3991054,40.6616664 21.8363671,40.6616664 C21.2736287,40.6616664 20.7414266,40.7836806 20.7414266,41.2098676 C20.7414266,41.6360546 20.096926,41.8979538 19.787825,41.4702878 C19.4787239,41.0426218 19.8821756,39.663738 19.4010748,39.4470704 C18.919974,39.2304027 18.7439858,38.8577048 18.3364212,38.8577048 C17.9288565,38.8577048 17.4853963,38.5944499 17.4853963,39.0207601 C17.4853963,39.4470704 18.1145664,39.0852181 18.3142357,39.4237767 C18.513905,39.7623354 19.0003652,39.7222114 19.0003652,39.988493 C19.0003652,40.2547746 19.420269,41.4769432 18.8672523,41.2796252 C18.3142357,41.0823072 17.1499967,40.6217345 16.7438031,40.9506798 C16.3376094,41.2796251 16.0936938,40.7037479 15.7513146,40.4792613 C15.4089353,40.2547746 14.1158212,40.3655046 14.1158212,40.06392 C14.1158212,39.7623354 13.9717402,39.2676232 13.4740626,39.2676232 C12.9763851,39.2676232 12.7448086,39.9293346 12.9431068,40.2955005 C13.1414051,40.6616664 11.4253959,40.6233367 11.2591294,40.192836 C11.092863,39.7623354 10.4732899,39.5430795 10.1641889,39.8034998 C9.8550879,40.06392 9.98421236,40.8315002 9.60145057,40.5121681 C9.21868878,40.192836 8.14880039,39.9718547 7.90613116,39.619739 C7.66346193,39.2676232 7.03279613,38.9576578 6.78052981,38.9576578 C6.52826349,38.9576578 5.96415412,38.7782107 5.50112577,38.7782107 C5.03809742,38.7782107 5.12546832,37.9613317 4.78720211,37.7995088 C4.44893591,37.637686 3.89155697,37.4417237 3.89155697,37.4417237 C3.89155697,37.4417237 2.26977369,35.2722125 1.91630171,34.1399453 C1.56282974,33.0076781 2.52715015,34.0630394 2.76981938,34.5673648 C3.01248861,35.0716902 3.6998645,35.6610558 4.0714089,35.6610558 C4.44295329,35.6610557 3.91087581,34.6124731 4.17423484,34.612473 C4.43759388,34.612473 5.29273188,34.855269 5.29273185,35.4775415 C5.29273183,36.0998139 5.38022741,36.6247215 5.69057479,36.6247215 C6.00092216,36.6247215 5.69182118,35.485799 6.13403505,35.485799 C6.57624891,35.485799 7.29765086,35.9573408 7.601891,35.9573408 C7.90613114,35.9573407 7.14733802,38.3255254 7.82100374,38.4557974 C8.49466946,38.5860693 9.14752078,38.9710915 9.14752076,38.4887042 C9.14752073,38.0063169 8.68436779,38.1473107 8.55275056,37.9734099 C8.42113333,37.799509 8.53056511,36.6753759 9.24997279,36.0805874 C9.96938047,35.485799 10.2119251,35.4694072 10.5099334,36.1587258 C10.8079416,36.8480445 11.6881318,36.5301913 11.6881318,36.8235184 C11.6881317,37.1168455 11.7007202,37.737762 11.9197083,37.7377622 C12.1386963,37.7377624 12.3535714,36.6865914 12.5600958,36.6865913 C12.7666201,36.6865913 13.0132778,35.6600698 13.4971206,35.9093978 C13.9809634,36.1587258 14.7529681,35.9329379 14.7529681,36.3782282 C14.7529681,36.8235184 14.6806784,37.3871255 15.2159965,37.3871254 C15.7513146,37.3871254 16.7615016,37.4954593 16.7615016,37.4954593 C16.7615016,37.4954592 16.8403972,36.3289295 17.3686109,36.3289295 C17.8968246,36.3289295 18.0310593,36.6334718 18.294543,37.3034409 C18.5580266,37.9734101 18.5385832,36.3538253 19.0347651,36.3538253 C19.530947,36.3538253 21.3022954,36.3114285 21.3022954,36.7266465 C21.3022953,37.1418645 21.1790289,37.3611204 20.7922787,37.1857404 C20.4055284,37.0103603 19.9079756,37.1819195 19.9079755,37.459841 C19.9079755,37.7377624 20.2947257,38.089508 20.6676412,37.9136352 C21.0405566,37.7377624 21.7584687,37.6834102 22.222868,37.6834104 C22.6872673,37.6834107 22.2894245,38.5564897 22.6748036,38.5564899 C23.0601828,38.5564901 22.8702352,39.211669 23.2126145,39.2116692 C23.5549937,39.2116694 23.3110781,38.8606625 23.3110781,38.5002894 C23.3110781,38.1399163 23.8865295,37.6161176 24.2716594,37.9205371 C24.6567893,38.2249566 24.7456559,38.5201319 24.5807604,38.738895 C24.415865,38.957658 24.6567893,39.7623354 24.6567893,39.7623354 Z" id="Path-56"></path>
                    <path d="M32.8621751,43.9318936 C32.2758803,43.9318936 32.0430574,44.3086587 31.8683156,44.500677 C31.6935738,44.6926954 32.4006424,45.076732 32.8871026,44.7887045 C33.3735628,44.500677 33.5704901,44.5488665 33.7922202,44.5488665 C34.0139503,44.5488665 34.0569503,43.3950311 33.4720264,43.6634624 C32.8871026,43.9318936 33.44847,43.9318936 32.8621751,43.9318936 Z" id="Path-57"></path>
                    <path d="M38.4616399,42.7986405 C38.019426,42.7986405 36.2258922,42.3943914 35.8710492,42.7890272 C35.5162062,43.1836631 35.8710492,43.4675001 35.5938554,43.6854003 C35.3166616,43.9033005 35.3069399,44.6983647 35.73669,44.392713 C36.1664401,44.0870612 36.2315008,44.7446321 37.2711024,44.1417827 C38.3107039,43.5389334 38.9151957,43.910079 39.3142851,43.5606747 C39.7133745,43.2112703 41.598392,42.7506975 41.5983921,42.4340768 C41.5983922,42.1174561 41.7771222,41.4048438 42.138945,41.4048438 C42.5007677,41.4048438 43.0289813,41.1210067 43.0289814,40.8701997 C43.0289815,40.6193927 42.3650373,39.8423225 42.8639614,39.8423225 C43.3628854,39.8423225 43.7314383,39.9628577 43.9616439,39.7449576 C44.1918495,39.5270575 44.2471884,39.2296632 44.6672169,38.8252909 C45.0872453,38.4209186 45.1592857,37.5917149 44.6741966,37.885042 C44.1891074,38.1783691 43.9412033,38.7896726 43.6693689,38.7896726 C43.3975346,38.7896726 43.0206306,38.3634856 42.5797878,38.9542069 C42.138945,39.5449282 42.4314691,40.4303323 42.1015537,40.4303323 C41.7716383,40.4303324 41.0425087,40.0535672 40.8665206,40.4618835 C40.6905325,40.8701998 40.478524,41.2829528 40.4785241,41.4994973 C40.4785241,41.7160418 40.6475324,41.6846137 40.2607823,41.9121271 C39.8740322,42.1396406 39.8405046,42.718037 39.5773949,42.7180371 C39.3142852,42.7180372 38.9038538,42.7986405 38.4616399,42.7986405 Z" id="Path-58"></path>
                    <path d="M53.6085872,28.227186 C53.6085872,28.227186 53.2510022,29.0849829 53.0861067,29.3112638 C52.9212113,29.5375447 52.266989,30.4159237 52.266989,30.8737851 C52.266989,31.3316465 52.010485,31.7236942 51.8788678,31.7236942 C51.7472506,31.7236942 51.3243555,32.0430264 51.1941093,32.2609265 C51.0638631,32.4788266 50.0991688,33.3544942 50.0991688,33.5944555 C50.0991688,33.8344168 50.3640235,34.6031063 49.9329024,34.733378 C49.5017812,34.8636498 48.2986553,35.6929766 48.2986553,35.9328147 C48.2986553,36.1726527 48.2168931,37.4089401 47.9313486,37.4089401 C47.6458041,37.4089401 46.8903761,37.5841969 46.625646,37.868034 C46.360916,38.1518711 45.9478673,39.0043683 45.7843429,39.0043683 C45.6208184,39.0043683 45.2798102,39.396416 45.5320765,39.396416 C45.7843429,39.396416 46.1531452,39.4704872 46.5383998,39.0551459 C46.9236543,38.6398046 47.4187145,38.720901 47.1663236,38.8880235 C46.9139326,39.0551459 45.95896,40.2338771 45.5168708,39.9940391 C45.0747815,39.7542011 44.5591561,40.7587847 44.7115878,40.7587847 C44.8640195,40.7587847 45.2161204,41.127662 44.9638541,41.4223448 C44.7115878,41.7170276 43.7123689,41.5197097 43.580627,41.7156719 C43.4488852,41.9116341 42.8751787,42.2171626 42.6644167,42.4475107 C42.4536547,42.6778587 42.0642871,43.3426513 41.7454643,43.3426513 C41.4266416,43.3426513 40.7058629,43.27807 40.3426692,43.4398929 C39.9794755,43.6017158 39.6648904,44.0335721 39.2517171,44.0335721 C38.8385437,44.0335721 37.3471313,44.1651996 37.3471313,44.4914335 C37.3471313,44.8176675 37.5814498,44.9232899 37.1475866,45.0561498 C36.7137234,45.1890097 36.1301706,44.5655048 35.8307913,44.8917387 C35.531412,45.2179727 35.8295449,45.6647419 35.6312467,45.6647419 C35.4329484,45.6647419 35.2125893,45.7291999 35.2125893,45.4687797 C35.2125893,45.2083595 34.8841694,44.759988 34.3088427,45.0109183 C33.7335159,45.2618485 33.0488821,45.2755289 33.0488821,45.4701354 C33.0488821,45.6647419 31.4203684,45.5647888 30.9254328,45.5647888 C30.4304973,45.5647888 28.8796328,45.6720134 28.7146127,45.3414659 C28.5495926,45.0109183 27.2232003,45.0331027 27.2232003,45.2989458 C27.2232003,45.5647888 27.1800757,45.4633568 26.8501602,45.4633568 C26.5202447,45.4633568 25.0815539,44.9235364 24.8292876,45.1112411 C24.5770213,45.2989458 24.1360538,45.494908 23.9586946,45.494908 C23.7813354,45.494908 23.6594399,44.8301154 23.6594399,44.8301154 C23.6594399,44.8301154 22.1748826,44.7342295 21.8477091,45.0165876 C21.5205356,45.2989458 21.8392337,45.9228204 21.6438021,45.7088642 C21.4483705,45.494908 20.8744148,46.1641374 20.6776122,45.8295227 C20.4808095,45.494908 20.8660641,44.9537318 19.6171962,44.9537318 C18.3683284,44.9537318 17.4215818,45.6360254 17.4215818,45.2948786 C17.4215818,44.9537318 16.6579278,44.3204904 16.2531052,44.3204904 C15.8482826,44.3204904 15.5072743,44.5944678 14.8544231,44.1449871 C14.2015718,43.6955065 13.7026478,43.4898078 13.3297324,43.4898078 C12.956817,43.4898078 11.3211989,43.6200795 11.0023762,43.2828766 C10.6835534,42.9456737 10.5157913,42.815402 10.1872469,42.815402 C9.85870239,42.815402 8.60559686,42.2301035 8.60559686,42.2301035 C8.60559686,42.2301035 10.1771512,43.5868029 11.157176,44.0391182 C12.1372007,44.4914335 13.137666,45.282061 13.3775932,45.1178964 C13.6175204,44.9537318 14.1679197,44.917867 14.4326497,44.917867 C14.6973798,44.917867 15.3266746,45.0029072 15.6468683,45.0029072 C15.9670621,45.0029072 17.3449298,45.7019624 17.6540308,45.9198625 C17.9631318,46.1377626 17.9223754,46.7600351 18.7697858,46.595624 C19.6171962,46.431213 19.3962139,45.8706871 19.6721614,45.8706871 C19.9481088,45.8706871 19.2811735,46.6040048 20.3943111,46.8301625 C21.5074487,47.0563201 22.4595546,46.6176852 22.8684903,46.8343528 C23.277426,47.0510205 25.4977186,46.9535324 26.4347434,47.1934937 C27.3717682,47.4334549 27.7403213,46.6465249 28.1159787,46.8329971 C28.4916362,47.0194693 28.8229227,47.4127495 29.5506811,47.4127495 C30.2784395,47.4127495 32.5766306,46.5312893 33.4427366,46.7602816 C34.3088427,46.9892739 34.5268337,47.1085767 34.9343983,46.9344291 C35.341963,46.7602816 35.2489834,46.1160712 35.6427133,46.1160712 C36.0364432,46.1160712 35.6928176,46.5300568 36.2222777,46.5300568 C36.7517379,46.5300568 37.5694846,46.8591254 37.7012264,46.6945911 C37.8329683,46.5300568 37.6457627,46.0131602 38.2542431,46.0131602 C38.8627234,46.0131602 39.2704127,46.3119102 39.7125019,46.0912986 C40.1545912,45.8706871 40.9599988,45.8639085 40.9599988,45.4334079 C40.9599988,45.0029072 40.4848806,44.4629636 41.1151725,44.4629636 C41.7454643,44.4629636 41.8303425,44.9139231 42.5843994,44.3328151 C43.3384564,43.751707 44.4653041,43.5734923 44.8534253,43.2801652 C45.2415465,42.9868381 45.1429582,42.7916154 45.6059866,42.2536437 C46.0690149,41.7156719 46.892121,40.7541014 47.1653265,40.8857288 C47.4385319,41.0173563 48.009621,40.6186533 48.3311857,40.1731165 C48.6527505,39.7275798 50.0165341,38.3442591 50.0165341,38.1061465 C50.0165341,37.868034 50.002824,36.9562551 50.457377,36.6931234 C50.91193,36.4299918 50.876533,34.8935987 51.3777004,34.6770543 C51.8788678,34.4605099 52.1914587,34.2606038 52.3355396,34.0000603 C52.4796206,33.7395168 51.7617085,33.4119272 52.0486241,33.0733686 C52.3355396,32.7348099 52.5627538,32.6211765 52.946762,32.3155248 C53.3307702,32.009873 53.5510046,31.4520585 53.4193874,31.0902063 C53.2877702,30.7283541 53.5400365,30.2569355 53.5400365,29.9512838 C53.5400365,29.645632 53.914323,28.8944435 53.914323,28.8944435 L54.0362185,28.1473222 L53.6085872,28.227186 Z" id="Path-59"></path>
                    <path d="M54.2576993,28.3968967 C54.2576993,28.3968967 53.9069694,29.0137463 53.9069694,29.394825 C53.9069694,29.7759038 53.6213002,30.2886099 53.6213002,30.4736032 C53.6213002,30.6585964 53.5104974,32.0469702 53.5104974,32.0469702 C53.5104974,32.0469702 53.2249529,32.230731 53.2249529,32.5583207 C53.2249529,32.8859104 53.2581065,33.3489481 53.2581065,33.6629807 C53.2581065,33.9770132 53.0684082,35.0377973 52.8936664,35.0377973 C52.7189246,35.0377973 52.4932061,37.012702 51.9760851,37.3169981 C51.458964,37.6212941 51.3161294,37.5472229 51.149863,37.9612085 C50.9835966,38.375194 51.0500284,38.273762 51.0500284,38.5903827 C51.0500284,38.9070034 50.8158345,39.8047322 50.5732899,39.8047322 C50.3307453,39.8047322 50.1880353,39.6485787 49.7777287,40.1967799 C49.367422,40.7449811 48.9239617,41.0178492 48.9239617,41.2673005 C48.9239617,41.5167518 48.3694494,41.7058122 48.1171831,42.0951484 C47.8649168,42.4844847 47.282735,43.4931355 47.0997671,43.3067865 C46.9167993,43.1204375 47.0942831,43.8427863 47.2467148,43.7125146 C47.3991464,43.5822428 48.2960379,42.8326565 48.4955826,42.4639025 C48.6951273,42.0951484 49.2382976,41.4663439 49.7595316,41.2689027 C50.2807656,41.0714616 51.4902481,40.305237 51.7331666,39.9106011 C51.976085,39.5159653 52.0007634,38.5577224 52.1878442,38.5577224 C52.374925,38.5577224 52.8612608,38.2630396 53.0596836,37.6819315 C53.2581064,37.1008234 52.9972403,37.551783 52.9972402,36.9048612 C52.9972401,36.2579394 52.9053824,36.4540249 53.4061759,35.9755813 C53.9069693,35.4971377 53.8677086,35.3971846 53.8677085,35.0476571 C53.8677085,34.6981295 53.7817088,33.3754462 53.932894,33.3754462 C54.0840792,33.3754462 54.3667572,33.4233891 54.3667571,32.8313121 C54.366757,32.2392351 54.333479,31.5635968 54.3334789,31.1153486 C54.3334788,30.6671005 54.3002008,29.9654571 54.3002007,29.5295337 C54.3002006,29.0936102 54.4220963,28.8318342 54.5552091,28.5248268 C54.6883218,28.2178193 54.2576993,28.3968967 54.2576993,28.3968967 Z" id="Path-60"></path>
                    <path d="M54.8626898,28.6521406 C55.0498953,28.6521406 55.0831735,29.3429382 55.3922746,29.5923895 C55.7013756,29.8418407 55.867642,30.0636847 55.867642,30.379073 C55.867642,30.6944612 55.8384769,31.3167337 55.8384769,31.5359895 C55.8384769,31.7552454 56.2571343,31.9307486 56.2571343,32.158262 C56.2571343,32.3857754 56.4540615,33.0738615 56.225227,33.3040863 C55.9963926,33.5343111 56.417792,33.9086113 56.1281344,34.1238 C55.8384769,34.3389887 55.9714651,34.8871899 55.9714651,34.8871899 C55.9714651,34.8871899 54.6397133,37.3200792 54.487157,37.5010054 C54.3346007,37.6819315 54.3137862,37.0144275 54.588238,36.4044797 C54.8626898,35.7945319 55.4282948,34.5103015 55.297924,34.3170508 C55.1675531,34.1238 55.565396,33.6043152 55.5653961,33.1767725 C55.5653961,32.7492298 55.5888279,32.3642072 55.4433759,31.9500984 C55.297924,31.5359895 55.3420456,31.0893436 55.1023677,31.0893436 C54.8626898,31.0893436 54.5019888,30.675358 54.6823393,30.3477683 C54.8626898,30.0201787 54.7821739,29.7666603 54.782174,29.441782 C54.782174,29.1169038 54.7169885,28.4850181 54.7169885,28.4850181 C54.7169886,28.4850181 54.6754843,28.6521406 54.8626898,28.6521406 Z" id="Path-61"></path>
                    <path d="M54.3332296,27.3172558 C54.3332296,27.6229076 54.5118352,27.8846835 54.7545044,27.8846835 C54.9971737,27.8846835 54.997049,28.2973134 55.1939763,28.2973134 C55.3909036,28.2973134 55.76519,28.3589367 55.76519,28.7427269 C55.76519,29.126517 56.2862994,29.423788 56.2862994,29.6404557 C56.2862994,29.8571233 56.8839363,29.9872718 56.8839363,30.6876827 C56.8839363,31.3880935 57.1681098,31.5485607 57.1681098,31.7239407 C57.1681098,31.8993207 57.1625011,32.0940505 57.1625011,32.0940505 C57.1625011,32.0940505 57.7555264,30.6891616 57.7555264,30.463004 C57.7555264,30.2368463 57.4128979,30.2685207 57.1484171,29.9544882 C56.8839363,29.6404557 57.1706026,29.3938391 56.885058,29.1786504 C56.5995135,28.9634617 56.8246088,28.3192513 56.4344934,28.3192513 C56.044378,28.3192513 55.6456626,28.2890559 55.6456626,27.9930174 C55.6456626,27.6969788 55.6333235,27.4350797 55.3490254,27.4350797 C55.0647272,27.4350797 54.7943884,27.4144975 54.7943884,27.4144975 L54.4991222,27.0334187 C54.4991222,27.0334187 54.3332296,27.0116041 54.3332296,27.3172558 Z" id="Path-62"></path>
                    <path d="M56.1317489,27.2802818 C56.393737,27.2802818 56.6943626,27.6421341 56.9897535,27.6421341 C57.2851444,27.6421341 57.3960718,27.4583733 57.5928744,27.4583733 C57.7896771,27.4583733 58.3112226,27.3627955 58.3112226,27.3627955 C58.3112226,27.3627955 58.382893,26.6623258 58.3981573,26.3609233 C58.4118712,26.0901326 58.3981573,25.6462158 58.3981573,25.6462158 C58.3981573,25.6462158 57.9141899,25.5162522 57.7535322,25.7135701 C57.5928744,25.910888 57.6134396,26.2028594 57.3015966,26.2028594 C56.9897535,26.2028594 56.9633304,26.2411891 56.9633304,26.6387829 C56.9633304,27.0363767 56.6056207,26.522438 56.3686848,26.522438 C56.1317489,26.522438 55.9348216,26.8539716 55.6603699,26.6882048 C55.3859181,26.522438 54.9215187,26.708787 54.9215187,26.708787 C54.9215187,26.708787 54.864684,26.9049957 55.2625269,27.1008347 C55.6603699,27.2966736 55.8697609,27.2802818 56.1317489,27.2802818 Z" id="Path-63"></path>
                    <path d="M54.2027342,26.2812443 C54.2027342,26.5660674 53.9365708,26.7855697 54.1639096,26.8500277 C54.3912484,26.9144857 54.7267103,26.8474395 54.7267103,26.5643419 C54.7267103,26.2812443 54.8978999,26.3182799 55.0579968,26.3182799 C55.2180937,26.3182799 55.7780277,26.2696591 55.9277173,26.0839264 C56.077407,25.8981936 56.5368208,25.7494349 56.6026917,25.6576161 C56.6685627,25.5657973 57.2714966,25.039534 57.2714966,24.8757392 C57.2714966,24.7119444 57.0392969,24.6625841 57.2548575,24.3836768 C57.4704181,24.1047696 57.2929966,23.7525306 57.3983153,23.6113516 C57.503634,23.4701725 57.6996888,23.3605446 57.8293741,23.3605446 C57.9590594,23.3605446 58.0512291,23.3549985 58.1337389,23.250855 C58.2162487,23.1467116 58.3867531,22.9561722 58.3867531,22.9561722 C58.3867531,22.9561722 58.2966401,21.0113397 58.1760534,20.6241603 C58.0554666,20.2369808 57.8947465,21.3634554 57.6785004,21.5375414 C57.4622543,21.7116273 57.7540931,22.1591977 57.6604903,22.2722764 C57.5668875,22.3853552 57.5359151,22.8116655 57.4671152,22.8116655 C57.3983153,22.8116655 56.8870522,23.0727636 56.8870522,23.2166541 C56.8870522,23.3605445 56.5322092,23.5181771 56.5322092,23.8245067 C56.5322092,24.1308362 56.3493037,24.4055529 56.3493037,24.6070614 C56.3493037,24.80857 55.929213,25.0230804 55.7684929,25.1478062 C55.6077728,25.2725321 55.4650629,25.7352002 55.3070225,25.7351999 C55.1489822,25.7351996 55.0624837,25.5159439 54.894597,25.7406844 C54.7267103,25.9654249 54.2027342,25.9964212 54.2027342,26.2812443 Z" id="Path-64"></path>
                    <path d="M54.4770613,25.5710969 C54.4770613,25.4833453 54.598396,24.9742133 54.7695856,24.9742133 C54.9407752,24.9742133 55.0558779,24.761736 55.2387835,24.3341317 C55.421689,23.9065273 55.6095177,23.4425652 55.6095177,23.3055149 C55.6095177,23.1684646 56.0309172,22.7697 56.2415546,22.2001771 C56.452192,21.6306542 56.2699719,21.8479381 56.3586515,21.2633791 C56.4473311,20.6788202 56.1326837,19.7509576 56.3198269,19.5878406 C56.5069701,19.4247236 56.4015891,19.0944842 56.5901034,18.8820069 C56.7786176,18.6695296 56.7786176,18.3070611 56.7786176,17.984956 C56.7786176,17.6628508 57.0371781,17.5251842 57.0371781,17.4497573 C57.0371781,17.3743303 57.3254647,17.743639 57.3254647,18.3864936 C57.3254647,19.0293483 56.940771,18.8197057 56.940771,19.2747324 C56.940771,19.7297592 56.7778074,20.4484721 56.9074928,20.6116507 C57.0371781,20.7748294 57.3157429,21.5429642 57.1764605,21.7184059 C57.0371781,21.8938475 57.0877809,22.7696384 56.8389421,22.7696384 C56.5901034,22.7696384 56.1140504,23.2772914 56.1140504,23.5096731 C56.1140504,23.7420547 56.2623067,24.0319924 56.0135302,24.146427 C55.7647538,24.2608616 55.57007,24.7474394 55.4771527,24.7474394 C55.3842355,24.7474394 55.0682794,25.0770626 55.0682794,25.2237262 C55.0682794,25.3703898 54.9282491,25.556122 54.7917087,25.5561225 C54.6551683,25.556123 54.4770613,25.6588486 54.4770613,25.5710969 Z" id="Path-65"></path>
                    <path d="M56.0626997,16.3259941 C56.0626997,16.5988622 56.1624097,17.3623754 56.1624097,17.8214692 C56.1624097,18.2805631 55.6356916,18.6765547 55.8990507,18.8287643 C56.1624097,18.980974 55.79099,19.185317 55.9766999,19.4799998 C56.1624097,19.7746826 55.9669781,20.924574 55.9669781,20.924574 C55.9669781,20.924574 55.745248,22.0814906 55.745248,22.233577 C55.745248,22.3856634 55.3474051,23.1969962 55.3474051,23.1969962 C55.3474051,23.1969962 55.0672199,22.5705334 55.2073125,22.4020552 C55.3474051,22.233577 55.0811793,21.6469228 55.2142922,21.1355723 C55.3474051,20.6242219 55.6770713,19.9811207 55.6770713,19.7305602 C55.6770713,19.4799998 55.3889094,18.6970136 55.5329903,18.3790372 C55.6770713,18.0610608 55.5205266,17.7526976 55.5205266,17.1962389 C55.5205266,16.6397801 55.7603292,16.0173844 55.7603291,15.8200665 C55.7603291,15.6227486 56.0626997,16.0531259 56.0626997,16.3259941 Z" id="Path-66"></path>
                    <path d="M42.6745123,2.72375152 C40.8619362,2.11024587 38.7111642,1.56782096 38.7111642,1.56782096 C38.7111642,1.56782096 40.7928599,2.54220917 41.0466218,2.54220917 C41.3003838,2.54220917 41.7675252,2.52162698 42.1541507,2.8821235 C42.5407763,3.24262003 43.165958,3.20564602 43.3170187,3.20564602 C43.4680794,3.20564602 43.5054706,3.76358372 43.9005715,4.05691081 C44.2956724,4.3502379 44.9125035,4.38437723 45.1772335,4.55852478 C45.4419636,4.73267233 46.0823511,4.58046269 46.0823511,4.89572768 C46.0823511,5.21099268 46.1046613,5.46870148 46.3666493,5.65381798 C46.6286373,5.83893449 47.2828596,5.94554286 47.5475897,6.20337491 C47.8123198,6.46120695 47.8027227,6.78867337 47.9981543,6.95049625 C48.1935859,7.11231914 48.7854895,7.30963706 49.0336427,7.30963706 C49.281796,7.30963706 49.3705379,7.94817809 49.3705379,8.19504118 C49.3705379,8.44190427 49.5532565,8.85712232 49.8583691,8.98739405 C50.1634818,9.11766579 50.3423366,9.37931848 50.507232,9.59734185 C50.6721274,9.81536522 50.6195304,10.3184581 50.8274258,10.4815135 C51.0353211,10.6445689 51.6424304,10.8051593 51.6424304,11.1765015 C51.6424304,11.5478437 51.4664423,11.9768654 51.6868014,12.2934861 C51.9071605,12.6101068 52.1803659,12.7621932 52.3258179,13.0993961 C52.4712699,13.436599 52.8677418,13.806832 52.9994837,14.1111281 C53.1312255,14.4154241 53.6301495,15.2650867 53.6301495,15.5337645 C53.6301495,15.8024422 53.7161493,16.6136518 53.7161493,16.9921424 C53.7161493,17.3706329 53.5346771,17.4720649 53.7161493,17.9709675 C53.8976216,18.46987 54.0749807,19.8651456 54.0749807,20.1776992 C54.0749807,20.4902528 54.0306098,21.8072667 54.0306098,21.9896718 C54.0306098,22.1720769 54.2150733,23.2480204 54.2150733,23.6289758 C54.2150733,24.0099313 54.1556212,24.3143506 54.3981658,24.3143506 C54.6407104,24.3143506 54.4923917,22.9599929 54.624009,22.7640307 C54.7556262,22.5680685 54.8471101,22.2475038 54.8471101,21.8524983 C54.8471101,21.4574927 54.8165739,18.4752929 54.8165739,17.7337176 C54.8165739,16.9921424 55.116701,16.2796533 54.6658872,15.9067089 C54.2150733,15.5337645 54.3000761,14.5745356 54.1653429,14.1811322 C54.0306098,13.7877288 54.0297373,12.7584958 53.8729433,12.7584958 C53.7161493,12.7584958 52.910991,12.2720412 52.910991,11.993627 C52.910991,11.7152127 52.8445592,11.0274963 52.456438,10.7545049 C52.0683168,10.4815135 51.9214938,9.56665343 51.5361147,9.27702374 C51.1507355,8.98739405 50.2317831,8.62184442 50.2317831,8.17495197 C50.2317831,7.72805953 49.4865754,6.63227334 49.2601091,6.41782412 C49.0336427,6.20337491 47.6187577,5.80787633 47.4857695,5.4473798 C47.3527813,5.08688328 46.4197449,4.6264337 46.4197449,4.45364186 C46.4197449,4.28085002 45.5520185,3.88325624 45.5520185,3.88325624 C45.5520185,3.88325624 43.142221,2.88205764 42.6745123,2.72375152 Z" id="Path-67"></path>
                </g>
            </g>
        </g>
    </g>
</svg>